<svg width="24" height="24" viewBox="0 0 24 24" fill="none" xmlns="http://www.w3.org/2000/svg">
<g clip-path="url(#clip0_51_2)">
<path fill-rule="evenodd" clip-rule="evenodd" d="M20.1317 11.6464C20.2255 11.7402 20.2782 11.8674 20.2782 12C20.2782 12.1326 20.2255 12.2598 20.1317 12.3536L15.8891 16.5962C15.7953 16.69 15.6681 16.7426 15.5355 16.7426C15.4029 16.7426 15.2757 16.69 15.182 16.5962C15.0882 16.5024 15.0355 16.3752 15.0355 16.2426C15.0355 16.11 15.0882 15.9829 15.182 15.8891L18.5711 12.4999L4.22182 12.5006C4.15608 12.5006 4.09098 12.4877 4.03024 12.4625C3.9695 12.4374 3.91431 12.4005 3.86782 12.354C3.82134 12.3075 3.78446 12.2523 3.7593 12.1916C3.73414 12.1308 3.72119 12.0657 3.72119 12C3.72119 11.9343 3.73414 11.8692 3.7593 11.8084C3.78446 11.7477 3.82134 11.6925 3.86782 11.646C3.91431 11.5995 3.9695 11.5626 4.03024 11.5375C4.09098 11.5123 4.15608 11.4994 4.22182 11.4994L18.5711 11.5001L15.182 8.11091C15.0882 8.01714 15.0355 7.88997 15.0355 7.75736C15.0355 7.62475 15.0882 7.49757 15.182 7.40381C15.2757 7.31004 15.4029 7.25736 15.5355 7.25736C15.6681 7.25736 15.7953 7.31004 15.8891 7.40381L20.1317 11.6464Z" fill="#F8F8F8"/>
</g>
<defs>
<clipPath id="clip0_51_2">
<rect width="16" height="16" fill="white" transform="translate(0.686279 12) rotate(-45)"/>
</clipPath>
</defs>
</svg>
