<svg width="18" viewBox="0 0 20 21" fill="none" xmlns="http://www.w3.org/2000/svg">
<path fill-rule="evenodd" clip-rule="evenodd" d="M7.429 7.01063H11.143V8.86063C11.678 7.79663 13.05 6.84063 15.111 6.84063C19.062 6.84063 20 8.95863 20 12.8446V20.0416H16V13.7296C16 11.5166 15.465 10.2686 14.103 10.2686C12.214 10.2686 11.429 11.6136 11.429 13.7286V20.0416H7.429V7.01063V7.01063ZM0.57 19.8716H4.57V6.84063H0.57V19.8716V19.8716ZM5.143 2.59163C5.14315 2.9269 5.07666 3.25886 4.94739 3.56821C4.81812 3.87757 4.62865 4.15814 4.39 4.39363C3.9064 4.87425 3.25181 5.14328 2.57 5.14163C1.88939 5.14117 1.23631 4.87283 0.752 4.39463C0.514211 4.15834 0.325386 3.87745 0.196344 3.56806C0.0673015 3.25867 0.000579132 2.92685 0 2.59163C0 1.91463 0.27 1.26663 0.753 0.788626C1.23689 0.309784 1.89024 0.0413268 2.571 0.0416262C3.253 0.0416262 3.907 0.310626 4.39 0.788626C4.872 1.26663 5.143 1.91463 5.143 2.59163Z" fill="white"/>
</svg>
