<?xml version="1.0" encoding="UTF-8" ?>
<!DOCTYPE svg PUBLIC "-//W3C//DTD SVG 1.1//EN" "http://www.w3.org/Graphics/SVG/1.1/DTD/svg11.dtd">
<svg width="129pt" height="191pt" viewBox="0 0 129 191" version="1.1" xmlns="http://www.w3.org/2000/svg">
<g id="#999999ff">
<path fill="#999999" opacity="1.00" d=" M 106.60 1.74 C 110.95 0.76 115.89 0.72 119.74 3.29 C 127.42 7.65 129.06 19.03 123.76 25.85 C 118.13 34.19 104.12 33.69 98.76 25.29 C 95.85 21.56 95.91 16.56 96.55 12.12 C 97.73 7.15 101.85 3.33 106.60 1.74 Z" />
<path fill="#999999" opacity="1.00" d=" M 22.79 65.69 C 30.60 63.35 39.49 63.54 46.68 67.69 C 56.83 72.70 64.17 83.57 63.74 95.05 C 64.90 112.09 48.92 127.58 32.02 126.67 C 15.41 126.95 -0.03 111.77 1.26 94.93 C 0.93 81.72 10.39 69.67 22.79 65.69 Z" />
<path fill="#999999" opacity="1.00" d=" M 95.71 95.68 C 105.98 95.05 116.29 95.46 126.57 95.47 C 127.47 107.93 124.59 120.42 119.76 131.86 C 114.00 145.87 104.62 158.40 92.99 168.10 C 83.61 176.56 71.99 181.96 60.24 186.28 C 52.65 188.49 44.83 189.94 36.93 190.28 C 35.43 190.21 33.98 189.81 32.52 189.53 C 32.56 179.28 32.35 169.02 32.65 158.77 C 49.24 158.84 65.57 152.00 77.20 140.20 C 82.94 134.37 87.65 127.45 90.79 119.89 C 91.65 117.68 92.44 115.45 93.22 113.21 C 93.52 112.16 93.84 111.11 94.17 110.08 C 95.16 105.33 95.55 100.52 95.71 95.68 Z" />
</g>
</svg>
