<svg width="16" height="16" viewBox="0 0 16 16" fill="none" xmlns="http://www.w3.org/2000/svg">
<path d="M15.445 13.4076L11.666 9.62863C12.2551 8.66169 12.5659 7.55089 12.564 6.41863C12.564 3.00163 9.603 0.0416261 6.186 0.0416261C5.37361 0.0414947 4.56914 0.201411 3.81856 0.51224C3.06799 0.823069 2.38599 1.27872 1.81154 1.85317C1.2371 2.42762 0.781443 3.10961 0.470614 3.86019C0.159785 4.61077 -0.000131279 5.41523 8.08612e-08 6.22763C8.08612e-08 9.64363 2.961 12.6046 6.377 12.6046C7.47195 12.6056 8.54731 12.3142 9.492 11.7606L13.291 15.5616C13.4697 15.7398 13.7117 15.8399 13.964 15.8399C14.2163 15.8399 14.4583 15.7398 14.637 15.5616L15.58 14.6186C15.951 14.2476 15.816 13.7786 15.445 13.4076ZM1.904 6.22763C1.90387 5.66522 2.01453 5.1083 2.22966 4.58867C2.44479 4.06904 2.76018 3.59687 3.15782 3.19915C3.55545 2.80142 4.02754 2.48592 4.54712 2.27067C5.0667 2.05542 5.6236 1.94463 6.186 1.94463C8.552 1.94463 10.66 4.05163 10.66 6.41863C10.6597 7.55447 10.2084 8.64371 9.40525 9.44687C8.60208 10.25 7.51284 10.7014 6.377 10.7016C4.011 10.7006 1.904 8.59263 1.904 6.22763V6.22763Z" fill="black"/>
</svg>
