<svg width="18" viewBox="0 0 22 20" fill="none" xmlns="http://www.w3.org/2000/svg">
<path d="M23.643 2.97858C22.808 3.34858 21.911 3.59858 20.968 3.71158C21.941 3.12937 22.669 2.21305 23.016 1.13358C22.1019 1.67657 21.1014 2.05878 20.058 2.26358C19.3564 1.51445 18.4271 1.01791 17.4143 0.851055C16.4016 0.684203 15.3621 0.856372 14.4572 1.34083C13.5524 1.82529 12.8328 2.59494 12.4102 3.53028C11.9875 4.46563 11.8855 5.51433 12.12 6.51358C10.2677 6.42058 8.45564 5.93913 6.80144 5.10049C5.14723 4.26184 3.68785 3.08474 2.51801 1.64558C2.11801 2.33558 1.88801 3.13558 1.88801 3.98758C1.88757 4.75458 2.07644 5.50982 2.43789 6.18631C2.79934 6.8628 3.32217 7.43962 3.96001 7.86558C3.22029 7.84204 2.49688 7.64216 1.85001 7.28258V7.34258C1.84994 8.41832 2.22204 9.46096 2.90319 10.2936C3.58434 11.1262 4.53258 11.6975 5.58701 11.9106C4.9008 12.0963 4.18135 12.1237 3.48301 11.9906C3.78051 12.9162 4.36001 13.7256 5.14038 14.3055C5.92075 14.8854 6.86293 15.2068 7.83501 15.2246C6.18485 16.52 4.1469 17.2227 2.04901 17.2196C1.67739 17.2197 1.30609 17.198 0.937012 17.1546C3.06649 18.5238 5.54535 19.2504 8.07701 19.2476C16.647 19.2476 21.332 12.1496 21.332 5.99358C21.332 5.79358 21.327 5.59158 21.318 5.39158C22.2293 4.73256 23.0159 3.91648 23.641 2.98158L23.643 2.97858V2.97858Z" fill="white"/>
</svg>
